<svg width="226" height="226" viewBox="0 0 226 226" fill="none" xmlns="http://www.w3.org/2000/svg">
<path d="M187 113.419C187 124.529 184.56 135.059 180.17 144.509C168.44 169.859 142.78 187.419 113 187.419C83.23 187.419 57.57 169.859 45.83 144.509C41.44 135.059 39 124.529 39 113.419C39 72.5389 72.12 39.4189 113 39.4189C153.89 39.4189 187 72.5389 187 113.419Z" fill="#F0F1F2"/>
<g filter="url(#filter0_d_153_5626)">
<path d="M168.999 65V148.526L132.999 167H94.795L56 149V41C56 40.4696 56.2107 39.9609 56.5858 39.5858C56.9609 39.2107 57.4696 39 58 39H143V63C143 63.5304 143.211 64.0391 143.586 64.4142C143.961 64.7893 144.47 65 145 65H168.999Z" fill="white"/>
<path d="M169 65H145C144.47 65 143.961 64.7893 143.586 64.4142C143.211 64.0391 143 63.5304 143 63V39L169 65Z" fill="#D2D5D9"/>
</g>
<path d="M72 52H94" stroke="#B5B9BE" stroke-width="6" stroke-linecap="round"/>
<path d="M104.999 65H71V99H105L104.999 65ZM104.999 110H71V144.001H105L104.999 110Z" fill="#E8E9EB"/>
<path d="M120 77H151" stroke="#D2D5D9" stroke-width="4" stroke-linecap="round"/>
<path d="M120 86H136" stroke="#E8E9EB" stroke-width="4" stroke-linecap="round"/>
<path d="M119 121H143" stroke="#D2D5D9" stroke-width="4" stroke-linecap="round"/>
<path d="M119 130H151" stroke="#E8E9EB" stroke-width="4" stroke-linecap="round"/>
<path d="M75.418 174.422H112.918C114.018 174.422 114.918 173.522 114.918 172.422V171.422H107.978C107.118 171.422 106.358 170.872 106.078 170.052L98.988 148.782C98.8555 148.383 98.6006 148.036 98.2595 147.79C97.9184 147.544 97.5085 147.412 97.088 147.412H66.918L73.418 172.412C73.418 173.522 74.318 174.422 75.418 174.422Z" fill="#B6BABF"/>
<path d="M148.918 163.422H80.918V176.422H148.918V163.422Z" fill="#5AB2AC"/>
<path d="M178.657 147.419C175.977 152.599 172.697 157.419 168.917 161.799L167.477 163.419C153.947 178.169 134.507 187.419 112.917 187.419C91.3268 187.419 71.8868 178.169 58.3568 163.419L56.9168 161.799C53.1368 157.419 49.8568 152.599 47.1768 147.419H89.4768C90.3368 147.419 91.0968 147.969 91.3768 148.789L98.4668 170.059C98.5992 170.458 98.8541 170.805 99.1952 171.051C99.5363 171.297 99.9462 171.429 100.367 171.429H129.487C130.347 171.429 131.107 170.879 131.387 170.059L138.477 148.789C138.609 148.39 138.864 148.043 139.205 147.797C139.546 147.551 139.956 147.419 140.377 147.419H178.657Z" fill="#399C97"/>
<path fill-rule="evenodd" clip-rule="evenodd" d="M90.6999 77.5C90.6999 76.0111 89.4888 74.8 87.9999 74.8C86.511 74.8 85.2999 76.0111 85.2999 77.5V79.9H90.6999V77.5ZM92.4999 79.9V77.5C92.4999 75.0148 90.4851 73 87.9999 73C85.5147 73 83.4999 75.0148 83.4999 77.5V79.9H81.9999C81.6684 79.9 81.3999 80.1685 81.3999 80.5V86.5C81.3999 88.9852 83.4147 91 85.8999 91H90.0999C92.5851 91 94.5999 88.9852 94.5999 86.5V80.5C94.5999 80.1685 94.3314 79.9 93.9999 79.9H92.4999ZM87.9999 88C87.5028 88 87.0999 87.5971 87.0999 87.1V83.5C87.0999 83.0029 87.5028 82.6 87.9999 82.6C88.497 82.6 88.8999 83.0029 88.8999 83.5V87.1C88.8999 87.5971 88.497 88 87.9999 88Z" fill="#EC856F"/>
<path fill-rule="evenodd" clip-rule="evenodd" d="M90.6999 122.5C90.6999 121.011 89.4888 119.8 87.9999 119.8C86.511 119.8 85.2999 121.011 85.2999 122.5V124.9H90.6999V122.5ZM92.4999 124.9V122.5C92.4999 120.015 90.4851 118 87.9999 118C85.5147 118 83.4999 120.015 83.4999 122.5V124.9H81.9999C81.6684 124.9 81.3999 125.168 81.3999 125.5V131.5C81.3999 133.985 83.4147 136 85.8999 136H90.0999C92.5851 136 94.5999 133.985 94.5999 131.5V125.5C94.5999 125.168 94.3314 124.9 93.9999 124.9H92.4999ZM87.9999 133C87.5028 133 87.0999 132.597 87.0999 132.1V128.5C87.0999 128.003 87.5028 127.6 87.9999 127.6C88.497 127.6 88.8999 128.003 88.8999 128.5V132.1C88.8999 132.597 88.497 133 87.9999 133Z" fill="#DE6A5A"/>
<defs>
<filter id="filter0_d_153_5626" x="46" y="31" width="133" height="148" filterUnits="userSpaceOnUse" color-interpolation-filters="sRGB">
<feFlood flood-opacity="0" result="BackgroundImageFix"/>
<feColorMatrix in="SourceAlpha" type="matrix" values="0 0 0 0 0 0 0 0 0 0 0 0 0 0 0 0 0 0 127 0" result="hardAlpha"/>
<feOffset dy="2"/>
<feGaussianBlur stdDeviation="5"/>
<feColorMatrix type="matrix" values="0 0 0 0 0 0 0 0 0 0 0 0 0 0 0 0 0 0 0.3 0"/>
<feBlend mode="normal" in2="BackgroundImageFix" result="effect1_dropShadow_153_5626"/>
<feBlend mode="normal" in="SourceGraphic" in2="effect1_dropShadow_153_5626" result="shape"/>
</filter>
</defs>
</svg>
