<svg width="226" height="226" viewBox="0 0 226 226" fill="none" xmlns="http://www.w3.org/2000/svg">
<path d="M109 199C149.869 199 183 165.869 183 125C183 84.13 149.869 51 109 51C68.13 51 35 84.13 35 125C35 165.869 68.13 199 109 199Z" fill="#F0F1F2"/>
<g filter="url(#filter0_d_153_5689)">
<rect x="53" y="42" width="112" height="125" rx="2" fill="white"/>
</g>
<path d="M67 100H126" stroke="#D2D5D9" stroke-width="4" stroke-linecap="round"/>
<path d="M67 114H117.571" stroke="#E8E9EB" stroke-width="4" stroke-linecap="round"/>
<path d="M67 128H117.571" stroke="#E8E9EB" stroke-width="4" stroke-linecap="round"/>
<path d="M67 142H96" stroke="#E8E9EB" stroke-width="4" stroke-linecap="round"/>
<g filter="url(#filter1_d_153_5689)">
<path d="M165 79C179.408 79 191 67.409 191 53C191 38.591 179.408 27 165 27C150.592 27 139 38.591 139 53C139 67.409 150.592 79 165 79Z" fill="#EC856F"/>
<path d="M175.033 45.8492C175.779 45.1027 175.779 43.7146 175.033 42.9674C174.286 42.2209 172.898 42.2209 172.151 42.9674L154.968 60.1508C154.221 60.8973 154.221 62.2854 154.968 63.0326C155.715 63.7791 157.102 63.7791 157.849 63.0326L175.033 45.8492Z" fill="white"/>
<path d="M172.151 63.0326C172.898 63.7791 174.286 63.7791 175.033 63.0326C175.779 62.2854 175.779 60.8973 175.033 60.1508L157.849 42.9674C157.102 42.2209 155.715 42.2209 154.968 42.9674C154.221 43.7146 154.221 45.1019 154.968 45.8492L172.151 63.0326Z" fill="white"/>
</g>
<path fill-rule="evenodd" clip-rule="evenodd" d="M53 173.127V156H165V173.622C151.434 189.173 131.472 199 109.214 199C86.7206 199 66.5718 188.965 53 173.127Z" fill="white"/>
<rect x="65" y="54" width="30" height="30" rx="1" fill="#E0B367"/>
<path fill-rule="evenodd" clip-rule="evenodd" d="M65 83.3683L94.3683 54C94.6645 54.1736 94.8633 54.4952 94.8633 54.8633V82.8633C94.8633 83.4156 94.4156 83.8633 93.8633 83.8633H65.8633C65.4952 83.8633 65.1736 83.6645 65 83.3683Z" fill="#D6A655"/>
<defs>
<filter id="filter0_d_153_5689" x="45" y="35" width="128" height="141" filterUnits="userSpaceOnUse" color-interpolation-filters="sRGB">
<feFlood flood-opacity="0" result="BackgroundImageFix"/>
<feColorMatrix in="SourceAlpha" type="matrix" values="0 0 0 0 0 0 0 0 0 0 0 0 0 0 0 0 0 0 127 0" result="hardAlpha"/>
<feOffset dy="1"/>
<feGaussianBlur stdDeviation="4"/>
<feColorMatrix type="matrix" values="0 0 0 0 0 0 0 0 0 0 0 0 0 0 0 0 0 0 0.3 0"/>
<feBlend mode="normal" in2="BackgroundImageFix" result="effect1_dropShadow_153_5689"/>
<feBlend mode="normal" in="SourceGraphic" in2="effect1_dropShadow_153_5689" result="shape"/>
</filter>
<filter id="filter1_d_153_5689" x="129" y="19" width="72" height="72" filterUnits="userSpaceOnUse" color-interpolation-filters="sRGB">
<feFlood flood-opacity="0" result="BackgroundImageFix"/>
<feColorMatrix in="SourceAlpha" type="matrix" values="0 0 0 0 0 0 0 0 0 0 0 0 0 0 0 0 0 0 127 0" result="hardAlpha"/>
<feOffset dy="2"/>
<feGaussianBlur stdDeviation="5"/>
<feColorMatrix type="matrix" values="0 0 0 0 0 0 0 0 0 0 0 0 0 0 0 0 0 0 0.3 0"/>
<feBlend mode="normal" in2="BackgroundImageFix" result="effect1_dropShadow_153_5689"/>
<feBlend mode="normal" in="SourceGraphic" in2="effect1_dropShadow_153_5689" result="shape"/>
</filter>
</defs>
</svg>
