<svg width="226" height="226" viewBox="0 0 226 226" fill="none" xmlns="http://www.w3.org/2000/svg">
<path d="M189 116C189 156.9 155.9 190 115 190C74.1 190 41 156.9 41 116C41 75.1 74.1 42 115 42C155.9 42 189 75.1 189 116Z" fill="#F0F1F2"/>
<path d="M76.8229 26C90.6374 26 100.142 34.4126 103.168 38.6189C97.4855 46.6626 79.2139 62.0858 51.5851 59.4291C49.3712 46.146 59.5549 26 76.8229 26Z" fill="#7FBEC6"/>
<path d="M101.175 38.1761C118.709 35.8737 126.339 42.53 127.963 46.146C133.719 59.8719 103.986 76.8714 94.5337 81.1248C90.106 83.1173 42.7297 100.164 38.302 81.1248C33.8743 62.0857 79.2582 41.0541 101.175 38.1761Z" fill="#399C97"/>
<ellipse cx="115.63" cy="51.8995" rx="4.4277" ry="2.65662" transform="rotate(-28.0175 115.63 51.8995)" fill="white"/>
<ellipse cx="91.9784" cy="51.4928" rx="5.02925" ry="3.01755" transform="rotate(-28.0175 91.9784 51.4928)" fill="white"/>
<ellipse cx="69.3977" cy="60.0278" rx="5.02925" ry="3.01755" transform="rotate(-22.2323 69.3977 60.0278)" fill="white"/>
<ellipse cx="52.5119" cy="78.294" rx="5.02925" ry="3.01755" transform="rotate(-22.2323 52.5119 78.294)" fill="white"/>
<path opacity="0.8" d="M80 162.5C80 157 68.3174 81.7621 68 80L105 64L167 162.5H80Z" fill="url(#paint0_linear_153_5738)"/>
<ellipse cx="86.7217" cy="72.694" rx="20.3674" ry="7.96978" transform="rotate(-22.2335 86.7217 72.694)" fill="white"/>
<path fill-rule="evenodd" clip-rule="evenodd" d="M75.9221 36.5084C75.4939 36.8291 75.2841 37.411 75.4419 37.9382C75.6349 38.5826 76.3052 38.7943 76.8394 38.3983C77.2574 38.0886 77.4624 37.4831 77.3075 36.9754C77.1097 36.3274 76.4429 36.1189 75.9221 36.5084ZM76.7758 35.291C76.7162 35.2885 76.2689 35.221 75.7203 35.5204C75.3768 35.7107 75.1266 35.9816 74.9459 36.2491C74.1044 37.4934 74.5189 39.3412 75.8855 39.5904C76.6453 39.729 77.2811 39.3257 77.7459 38.7317L77.8333 38.9977L78.7918 38.526L77.6651 34.5604L76.7078 35.0325L76.7758 35.291Z" fill="white"/>
<path fill-rule="evenodd" clip-rule="evenodd" d="M65.0094 41.8852C64.5824 42.2005 64.3684 42.7954 64.532 43.3168C64.7329 43.9553 65.3918 44.1676 65.9236 43.7728C66.3455 43.4591 66.5446 42.8615 66.3909 42.3503C66.1986 41.7115 65.5335 41.4983 65.0094 41.8852ZM65.8589 40.673C65.8094 40.6734 65.5637 40.659 65.3575 40.699C64.1787 40.9274 63.4235 42.2796 63.6319 43.4705C63.8936 44.9612 65.3882 45.4502 66.4768 44.4878C66.6282 44.3543 66.7313 44.2257 66.8302 44.1062L66.9175 44.3801L67.8709 43.9099L66.7478 39.9436L65.7959 40.413L65.8589 40.673Z" fill="white"/>
<path fill-rule="evenodd" clip-rule="evenodd" d="M82.7794 33.8554L84.2781 33.1183C84.0806 32.4432 83.1653 32.3135 82.8277 33.2464C82.7819 33.3727 82.7223 33.6961 82.7794 33.8554ZM85.5438 34.3361C85.4774 34.3101 84.8506 34.0859 84.8054 34.0673C84.7155 34.2542 84.5468 34.7002 84.0119 34.9231C83.6268 35.0841 83.1856 34.9458 82.9899 34.5469L85.4506 33.3335C85.3262 32.7968 85.1319 32.2468 84.7119 31.8847C83.1514 30.5392 80.8356 33.2001 82.174 35.2921C82.483 35.7747 82.9265 35.9866 83.3331 36.0133C83.8202 36.0452 84.3764 35.8477 84.7985 35.4891C84.9886 35.3276 85.1547 35.135 85.2662 34.9485C85.3677 34.7828 85.4863 34.506 85.5438 34.3361Z" fill="white"/>
<path fill-rule="evenodd" clip-rule="evenodd" d="M78.9447 34.1314L78.886 33.9571L77.9341 34.4264L79.058 38.3924L80.0134 37.9223C79.8452 37.3244 79.6759 36.7262 79.5077 36.1284C79.363 35.6216 79.1499 34.9841 79.708 34.5773C79.9913 34.3619 80.2745 34.3159 80.492 34.5416C80.6944 34.7508 80.778 35.1671 80.8539 35.4396C81.0237 36.0446 81.1994 36.6477 81.3758 37.2505L82.283 36.8031C82.1387 36.2832 81.99 35.7724 81.8437 35.2545C81.7364 34.8749 81.5326 33.9916 81.3486 33.6796C81.0651 33.1995 80.6227 33.0568 80.133 33.1896C79.6653 33.3156 79.1787 33.6224 78.9447 34.1314Z" fill="white"/>
<path fill-rule="evenodd" clip-rule="evenodd" d="M61.2462 47.1763L62.3078 46.6528L61.7257 44.5955L60.6602 44.4551C60.7109 44.3823 61.3832 43.4388 61.3933 43.4218C61.2983 43.0889 61.2185 42.8203 61.1295 42.5213C61.106 42.4422 61.1157 42.3058 61.1578 42.2153C61.1909 42.1442 61.2459 42.0702 61.3474 42.0191C61.4175 41.9836 61.6561 41.8669 61.7469 41.8221C62.1206 41.6378 62.8814 41.2627 63.2229 41.0943L62.9141 40.0196C62.1467 40.399 61.3785 40.7748 60.6171 41.1523C60.0855 41.4293 59.7898 41.9928 59.9448 42.651C59.9699 42.7592 60.0744 43.1053 60.113 43.2428C60.4414 44.4145 60.8687 45.8833 61.2462 47.1763Z" fill="white"/>
<path fill-rule="evenodd" clip-rule="evenodd" d="M70.121 39.6287L70.6357 39.3749C70.714 39.5376 71.0471 40.8036 71.1384 41.1074C71.4272 42.0604 72.2036 41.7743 72.676 41.5414C72.7661 41.4969 73.1096 41.3285 73.2052 41.2794L72.9086 40.2276C72.7464 40.3076 72.6124 40.3736 72.5165 40.4219C72.2615 40.5507 72.1953 40.4757 72.0438 39.9414C71.94 39.5749 71.8123 39.1894 71.7325 38.834L72.4176 38.4952L72.0801 37.313L71.3961 37.6503L71.1378 36.753C70.8953 37.1796 70.5404 37.7991 70.3166 38.1826C70.1383 38.2695 69.9531 38.3619 69.7823 38.4461C69.861 38.7302 70.0669 39.454 70.121 39.6287Z" fill="white"/>
<path fill-rule="evenodd" clip-rule="evenodd" d="M68.1919 42.4221L68.034 43.3462C69.4062 43.6464 71.0039 42.2964 70.4221 41.0433C70.0934 40.3372 69.3372 40.5636 68.7369 40.4779C68.6038 40.4588 68.4137 40.417 68.3141 40.3315C68.1626 40.1999 68.2324 39.992 68.3113 39.8913C68.5531 39.5817 69.0895 39.6601 69.2684 39.6735C69.298 39.5992 69.5312 38.9818 69.572 38.863C69.0147 38.6415 68.1602 38.9133 67.7008 39.384C67.234 39.8614 67.0804 40.6618 67.4852 41.1529C67.918 41.6771 68.7286 41.4209 69.2317 41.5187C69.6357 41.5975 69.6395 42.2904 68.6706 42.3994C68.5133 42.4162 68.2688 42.4241 68.1919 42.4221Z" fill="white"/>
<path fill-rule="evenodd" clip-rule="evenodd" d="M75.1001 40.3443L74.8 39.2952C74.5591 39.413 74.4017 39.5225 74.2506 39.3069C74.2041 39.2402 74.1171 38.9452 74.0197 38.6134C73.6708 37.4279 73.3399 36.2335 73.0012 35.045L71.8993 35.5874C72.2977 36.9977 72.6988 38.4076 73.0996 39.8167C73.189 40.1304 73.2406 40.401 73.5035 40.6083C73.8455 40.8772 74.2665 40.7513 74.6442 40.5691C74.8024 40.4931 74.963 40.4119 75.1001 40.3443Z" fill="white"/>
<path fill-rule="evenodd" clip-rule="evenodd" d="M61.1821 44.1804C61.4993 44.2293 62.9806 44.4128 63.407 44.4637C63.298 44.065 62.8372 42.4273 62.7271 42.056L61.1821 44.1804Z" fill="white"/>
<g clip-path="url(#clip0_153_5738)">
<path d="M121.001 168C143.093 168 161.003 165.774 161.003 163.028C161.003 160.282 143.093 158.056 121.001 158.056C98.9092 158.056 81 160.282 81 163.028C81 165.774 98.9092 168 121.001 168Z" fill="#68E1FD"/>
<path d="M121.001 168C143.093 168 161.003 165.774 161.003 163.028C161.003 160.282 143.093 158.056 121.001 158.056C98.9092 158.056 81 160.282 81 163.028C81 165.774 98.9092 168 121.001 168Z" fill="#DBDBDB"/>
<path d="M99.0876 114.452C98.3456 113.946 97.5102 113.595 96.6308 113.419C95.7514 113.244 94.846 113.248 93.9682 113.431C93.6469 113.482 93.3434 113.613 93.0854 113.812C92.4842 114.322 92.578 115.272 92.4182 116.053C92.2229 117.015 91.581 117.839 91.3502 118.789C91.2157 119.503 91.208 120.236 91.3273 120.953C91.6654 123.782 92.339 126.561 93.334 129.228L90.5435 166.216C90.5435 166.216 93.3974 166.68 99.1866 167.145L99.8005 131.921L99.0876 114.452Z" fill="#F5C6AF"/>
<path d="M144.249 114.769C144.992 114.266 145.829 113.919 146.708 113.747C147.587 113.575 148.492 113.582 149.368 113.768C149.69 113.82 149.994 113.95 150.254 114.149C150.852 114.659 150.761 115.609 150.918 116.392C151.116 117.355 151.758 118.179 151.989 119.128C152.124 119.842 152.131 120.574 152.009 121.29C151.674 124.12 151.001 126.898 150.005 129.565L152.783 166.037C152.783 166.037 149.675 166.563 144.122 167.091L143.526 132.256L144.249 114.769Z" fill="#F5C6AF"/>
<path d="M145.939 100.988H96.4774C95.3047 100.988 94.354 101.945 94.354 103.125V132.894C94.354 134.074 95.3047 135.03 96.4774 135.03H145.939C147.111 135.03 148.062 134.074 148.062 132.894V103.125C148.062 101.945 147.111 100.988 145.939 100.988Z" fill="white"/>
<path d="M96.6297 114.006C96.8473 114.115 97.0328 114.279 97.1675 114.483C97.2789 114.722 97.3337 114.984 97.3273 115.249L97.4034 116.895C97.4378 117.166 97.4056 117.441 97.3095 117.697C97.2584 117.823 97.1647 117.926 97.045 117.99C96.9254 118.053 96.7873 118.072 96.655 118.044C96.7522 118.364 96.7836 118.701 96.7474 119.034C96.7112 119.367 96.6081 119.689 96.4445 119.981C96.3624 120.104 96.2984 120.238 96.2542 120.379C96.2331 120.55 96.2417 120.722 96.2796 120.89C96.3371 121.303 96.3064 121.723 96.1896 122.123C96.0728 122.523 95.8726 122.894 95.6022 123.21C95.5196 123.313 95.418 123.4 95.3029 123.465C95.152 123.53 94.99 123.564 94.826 123.567L94.0801 123.631C94.0432 123.643 94.0041 123.647 93.9657 123.641C93.9272 123.636 93.8906 123.622 93.8585 123.6C93.8264 123.578 93.7997 123.549 93.7805 123.515C93.7613 123.481 93.7501 123.443 93.7478 123.404C93.1815 121.596 92.9241 119.705 92.9867 117.811C93.0161 116.857 93.1298 115.907 93.3267 114.973C93.4459 114.427 93.6793 113.595 94.2602 113.373C95.0111 113.107 95.9802 113.63 96.6297 114.006Z" fill="#F5C6AF"/>
<path d="M145.622 114.006C145.404 114.115 145.218 114.279 145.084 114.483C144.972 114.722 144.918 114.984 144.924 115.249L144.848 116.895C144.813 117.166 144.846 117.441 144.942 117.697C144.993 117.823 145.087 117.926 145.206 117.99C145.326 118.053 145.464 118.072 145.596 118.044C145.499 118.364 145.468 118.701 145.504 119.034C145.539 119.367 145.642 119.689 145.804 119.981C145.888 120.103 145.953 120.237 145.997 120.379C146.018 120.55 146.009 120.723 145.969 120.89C145.913 121.303 145.944 121.723 146.061 122.123C146.179 122.523 146.379 122.894 146.649 123.21C146.732 123.313 146.833 123.4 146.948 123.465C147.099 123.53 147.261 123.564 147.425 123.567L148.179 123.641C148.216 123.653 148.255 123.657 148.293 123.651C148.332 123.646 148.368 123.632 148.4 123.61C148.433 123.588 148.459 123.559 148.478 123.525C148.498 123.491 148.509 123.453 148.511 123.414C149.077 121.607 149.335 119.716 149.272 117.822C149.243 116.867 149.129 115.917 148.93 114.983C148.813 114.437 148.676 113.753 148.1 113.531C147.342 113.253 146.271 113.63 145.622 114.006Z" fill="#F5C6AF"/>
<path d="M131.542 124.224L122.914 108.968C121.859 107.103 120.134 107.103 119.079 108.968L110.45 124.224C109.395 126.091 110.258 127.615 112.367 127.615H129.626C131.734 127.615 132.597 126.091 131.542 124.224ZM121.678 124.88H120.314V123.512H121.678V124.88ZM121.678 120.777H120.314V112.573H121.678V120.777Z" fill="#EC856F"/>
</g>
<defs>
<linearGradient id="paint0_linear_153_5738" x1="89" y1="71" x2="139" y2="167.5" gradientUnits="userSpaceOnUse">
<stop stop-color="white"/>
<stop offset="1" stop-color="white" stop-opacity="0.2"/>
</linearGradient>
<clipPath id="clip0_153_5738">
<rect width="80" height="78" fill="white" transform="translate(81 90)"/>
</clipPath>
</defs>
</svg>
